<?xml version="1.0" encoding="utf-8"?>
<!-- Generator: Adobe Illustrator 22.0.1, SVG Export Plug-In . SVG Version: 6.00 Build 0)  -->
<svg version="1.1" id="圖層_1" xmlns="http://www.w3.org/2000/svg" xmlns:xlink="http://www.w3.org/1999/xlink" x="0px" y="0px"
	 viewBox="0 0 400 120" style="enable-background:new 0 0 400 120;" xml:space="preserve">
<g>
	<path d="M67.4,64.2v-49H84c6.7,0,12,1,15.9,3c3.9,2,7,5,9.3,8.8c2.3,3.9,3.4,8.1,3.4,12.7c0,3.3-0.6,6.4-1.9,9.4
		c-1.3,3-3.1,5.6-5.4,7.9c-2.4,2.3-5.2,4.1-8.3,5.3c-1.9,0.7-3.6,1.2-5.1,1.5c-1.5,0.2-4.5,0.4-8.9,0.4H67.4z M83.2,21.4h-8.8V58h9
		c3.5,0,6.2-0.2,8.2-0.7c1.9-0.5,3.6-1.1,4.9-1.8s2.5-1.6,3.6-2.7c3.5-3.5,5.2-8,5.2-13.3c0-5.3-1.8-9.6-5.3-12.9
		c-1.3-1.2-2.8-2.3-4.5-3.1c-1.7-0.8-3.3-1.3-4.8-1.6C89.1,21.6,86.6,21.4,83.2,21.4z"/>
</g>
<g>
	<path d="M137.7,14.9h4.9l22,49.4h-7.2l-6.5-14.6h-21l-6.1,14.6h-7.2L137.7,14.9z M148,43.5l-7.9-17.8l-7.3,17.8H148z"/>
</g>
<g>
	<path d="M212.6,15.2h6.7v49.1h-6l-32.8-37.8v37.8h-6.6V15.2h5.7l33.1,38.1V15.2z"/>
</g>
<g>
	<path d="M267.2,15.2h27.8v6.3h-20.8v15h20.1v6.3h-20.1V58h21.5v6.3h-28.5V15.2z"/>
</g>
<g>
	<path d="M308.5,15.2h7v42.7h22.1v6.4h-29.1V15.2z"/>
</g>
<g>
	<path d="M85.1,94.2l-2.7-1.6c-1.7-1-2.9-2-3.6-3s-1.1-2.1-1.1-3.4c0-1.9,0.7-3.5,2-4.7s3.1-1.8,5.2-1.8c2.1,0,3.9,0.6,5.6,1.7v4
		c-1.8-1.7-3.7-2.6-5.7-2.6c-1.1,0-2.1,0.3-2.8,0.8s-1.1,1.2-1.1,2c0,0.7,0.3,1.4,0.8,2.1c0.5,0.6,1.4,1.3,2.6,2l2.7,1.6
		c3,1.8,4.5,4.1,4.5,6.8c0,2-0.7,3.6-2,4.8s-3,1.8-5.1,1.8c-2.4,0-4.6-0.7-6.6-2.2v-4.5c1.9,2.4,4.1,3.6,6.6,3.6
		c1.1,0,2-0.3,2.8-0.9c0.7-0.6,1.1-1.4,1.1-2.3C88.3,97,87.2,95.6,85.1,94.2z"/>
	<path d="M113.3,79.9h20.5V83h-8.6v21.5h-3.5V83h-8.4V79.9z"/>
	<path d="M178.6,79.9h3.5v13.9c0,1.9-0.1,3.3-0.4,4.3s-0.6,1.8-1,2.4s-0.9,1.2-1.5,1.7c-1.9,1.7-4.5,2.5-7.6,2.5
		c-3.2,0-5.8-0.8-7.7-2.5c-0.6-0.5-1.1-1.1-1.5-1.7s-0.7-1.4-1-2.3s-0.4-2.4-0.4-4.4V79.9h3.5v13.9c0,2.3,0.3,3.9,0.8,4.8
		s1.3,1.6,2.4,2.2c1.1,0.5,2.3,0.8,3.8,0.8c2.1,0,3.8-0.5,5.1-1.6c0.7-0.6,1.2-1.3,1.5-2.1s0.5-2.2,0.5-4.1V79.9z"/>
	<path d="M211.4,104.5V79.9h8.3c3.3,0,6,0.5,7.9,1.5s3.5,2.5,4.6,4.4s1.7,4.1,1.7,6.4c0,1.6-0.3,3.2-0.9,4.7s-1.5,2.8-2.7,4
		c-1.2,1.2-2.6,2.1-4.2,2.7c-0.9,0.4-1.8,0.6-2.5,0.7s-2.2,0.2-4.4,0.2H211.4z M219.4,83.1H215v18.3h4.5c1.8,0,3.1-0.1,4.1-0.4
		s1.8-0.5,2.4-0.9s1.2-0.8,1.8-1.4c1.7-1.8,2.6-4,2.6-6.7c0-2.6-0.9-4.8-2.7-6.5c-0.7-0.6-1.4-1.1-2.3-1.5s-1.7-0.7-2.4-0.8
		S221,83.1,219.4,83.1z"/>
	<path d="M269.9,79.6l-6.6,25.2h-3.1l6.6-25.2H269.9z"/>
	<path d="M309.4,79.6c3.8,0,7,1.2,9.5,3.6c2.5,2.4,3.8,5.4,3.8,9s-1.3,6.6-3.8,9c-2.5,2.4-5.8,3.6-9.6,3.6c-3.7,0-6.8-1.2-9.2-3.6
		c-2.5-2.4-3.7-5.3-3.7-8.9c0-3.7,1.2-6.7,3.7-9.1C302.4,80.8,305.6,79.6,309.4,79.6z M309.5,82.9c-2.8,0-5.1,0.9-6.9,2.6
		c-1.8,1.8-2.7,4-2.7,6.7c0,2.6,0.9,4.9,2.7,6.6c1.8,1.8,4.1,2.6,6.8,2.6c2.7,0,5-0.9,6.9-2.7c1.8-1.8,2.7-4,2.7-6.7
		c0-2.6-0.9-4.8-2.7-6.6C314.4,83.8,312.2,82.9,309.5,82.9z"/>
</g>
<g>
	<path d="M49.4,46.5L23.6,56.9l25.8,10.5v8.2l-34.8-15v-7.4l34.8-15V46.5z"/>
</g>
<g>
	<path d="M350.6,38.3l34.8,15v7.4l-34.8,15v-8.2l25.8-10.5l-25.8-10.4V38.3z"/>
</g>
<polygon points="239.7,64.3 252.5,15.2 246.2,15.2 233.4,64.3 "/>
</svg>
